<?xml version="1.0" encoding="UTF-8"?>
<svg id="Layer_1" data-name="Layer 1" xmlns="http://www.w3.org/2000/svg" xmlns:xlink="http://www.w3.org/1999/xlink" viewBox="0 0 280 280">
  <defs>
    <style>
      .cls-1 {
        stroke: #20b9a3;
        stroke-width: 2.96px;
      }

      .cls-1, .cls-2 {
        fill: none;
      }

      .cls-2 {
        stroke: #5476ba;
        stroke-width: 1.58px;
      }

      .cls-3 {
        fill: url(#linear-gradient);
      }

      .cls-4 {
        fill: #5376ba;
      }

      .cls-5 {
        fill: #13baa4;
      }
    </style>
    <linearGradient id="linear-gradient" x1="142.32" y1="33.85" x2="137.65" y2="246.52" gradientUnits="userSpaceOnUse">
      <stop offset="0" stop-color="#4657a0"/>
      <stop offset="1" stop-color="#13baa4"/>
    </linearGradient>
  </defs>
  <path class="cls-3" d="m140,248.88v-4.1c58.2-.1,105.2-47.2,105.3-105.3-.1-58.1-47.2-105.2-105.3-105.3-58.2.1-105.3,47.2-105.3,105.3.1,58.2,47.1,105.3,105.3,105.4v8.1c-62.7,0-113.4-50.8-113.4-113.4h0c0-62.7,50.8-113.4,113.4-113.5,62.7,0,113.4,50.8,113.4,113.4s-50.8,113.4-113.4,113.4h0v-4h0Z"/>
  <circle class="cls-1" cx="140" cy="139.48" r="97.2"/>
  <path class="cls-4" d="m93.8,107.58c-20,0-36.4,16.3-36.4,36.4s16.3,36.3,36.4,36.3,36.4-16.3,36.4-36.4-16.4-36.3-36.4-36.3Zm-.6,68.5c-17.8,0-32.2-14.4-32.2-32.2s14.4-32.2,32.2-32.2,32.2,14.4,32.2,32.2-14.4,32.2-32.2,32.2Z"/>
  <circle class="cls-2" cx="93.2" cy="143.88" r="32.2"/>
  <path class="cls-5" d="m93.2,115.38c-15.8,0-28.6,12.8-28.6,28.6s12.8,28.6,28.6,28.6,28.6-12.8,28.6-28.6-12.8-28.6-28.6-28.6Zm0,52.2c-13,0-23.7-10.6-23.7-23.7s10.6-23.7,23.7-23.7,23.7,10.6,23.7,23.7-10.6,23.7-23.7,23.7Z"/>
  <path class="cls-4" d="m186.02,107.58c-20,0-36.4,16.3-36.4,36.4s16.3,36.3,36.4,36.3,36.4-16.3,36.4-36.4-16.4-36.3-36.4-36.3Zm-.6,68.5c-17.8,0-32.2-14.4-32.2-32.2s14.4-32.2,32.2-32.2,32.2,14.4,32.2,32.2-14.4,32.2-32.2,32.2Z"/>
  <circle class="cls-2" cx="185.42" cy="143.88" r="32.2"/>
  <path class="cls-5" d="m185.42,115.38c-15.8,0-28.6,12.8-28.6,28.6s12.8,28.6,28.6,28.6,28.6-12.8,28.6-28.6-12.8-28.6-28.6-28.6Zm0,52.2c-13,0-23.7-10.6-23.7-23.7s10.6-23.7,23.7-23.7,23.7,10.6,23.7,23.7-10.6,23.7-23.7,23.7Z"/>
  <path class="cls-4" d="m170.3,107.18l-6.7-1.4s-3-.1-5.9-2c0,0-4.8-3.9-10.8-5.7,0,0-7.6-3.6-18,1.5,0,0-5.4,3-6.6,3.9,0,0-4.4,2-6,2.2,0,0-7.1,1.3-6.7,1.9,0,0,33.3,12.9,22,48.3,0,0,8.9-5.4,16.8,0,0,0-12.3-33.8,21.9-48.7Zm-30.3,5.6c-1.4,0-2.6-1.2-2.5-2.6,0-1.4,1.1-2.6,2.5-2.6s2.5,1.1,2.5,2.6c0,1.4-1.1,2.6-2.5,2.6Z"/>
</svg>